# xmcd
#
# Track frame offsets: 
#        150
#        16137
#        35620
#        45710
#        55150
#        69672
#        82552
#        97615
#        110427
#        123655
#        138425
#        149602
#        164640
#        181392
#        185632
#        213290
#        236562
#        261302
#        275315
#
# Disc length: 3819 seconds
#
# Revision: 7
# Processed by: cddbd v1.5.2PL0 Copyright (c) Steve Scherf et al.
# Submitted via: ExactAudioCopyFreeDBPlugin 1.0
#
DISCID=0f0ee913
DTITLE=Fleetwood Mac - Peter Green's Fleetwood Mac - RM and Expanded Edi
DTITLE=tion 2004 -
DYEAR=1968
DGENRE=Blues
TTITLE0=My Heart Beat Like A Hammer
TTITLE1=Merry Go Round
TTITLE2=Long Grey Mare
TTITLE3=Hellhound On My Trail
TTITLE4=Shake Your Moneymaker
TTITLE5=Looking For Somebody
TTITLE6=No Place To Go
TTITLE7=My Baby's Good To Me
TTITLE8=I Loved Another Woman
TTITLE9=Cold Black Night
TTITLE10=The World Keep On Turning
TTITLE11=Got To Move
TTITLE12=My Heart Beat Like A Hammer (Take 1)
TTITLE13=Merry Go Round (Take 1)
TTITLE14=I Loved Another Woman (Takes 1, 2, 3 and 4)
TTITLE15=I Loved Another Woman (Takes 5 and 6)
TTITLE16=Cold Black Night (Takes 1, 2, 3, 4, 5, and 6)
TTITLE17=You're So Evil
TTITLE18=I'm Coming Home To Stay
EXTD=YEAR: 1968
EXTT0=(Blue Horrizon LP 7-63200) * take 2 - master version with studio
EXTT0=talk
EXTT1=(Blue Horrizon LP 7-63200) * take 2 - master version with studio
EXTT1=talk/remix
EXTT2=(Blue Horrizon LP 7-63200)
EXTT3=(Blue Horrizon LP 7-63200) * take I - complete master version/re
EXTT3=mix
EXTT4=(Blue Horrizon LP 7-63200) * master version with studio talk
EXTT5=(Blue Horrizon LP 7-63200)
EXTT6=(Blue Horrizon LP 7-63200)
EXTT7=(Blue Horrizon LP 7-63200)
EXTT8=(Blue Horrizon LP 7-63200)
EXTT9=(Blue Horrizon LP 7-63200)
EXTT10=(Blue Horrizon LP 7-63200)
EXTT11=(Blue Horrizon LP 7-63200)
EXTT12=take I - previously unissued
EXTT13=take I - previously unissued/incomplete
EXTT14=take I - previously unissued/incomplete - take 2 - previously u
EXTT14=nissued - take 3 - previously unissued/false start - take 4 - p
EXTT14=reviously unissued/incomplete
EXTT15=take 5 - complete master version/remixo - take 6 - previously u
EXTT15=nissued/incomplete
EXTT16=take I - previously unissued/false start - take 2 - previously 
EXTT16=unissued/false start - take 3 - previously unissued/false start
EXTT16=take 4 - previously unissued/false start - take 5 - previous
EXTT16=ly unissued/false start - take 6 - complete master version/remi
EXTT16=x
EXTT17=previously unissued
EXTT18=previously unissued
PLAYORDER=
